<svg xmlns="http://www.w3.org/2000/svg" width="1028" height="435" viewBox="214 353 1028 435" role="img" aria-label="METHOD//MAGIC">
  <defs>
    <linearGradient id="methodFill" x1="0" y1="365" x2="0" y2="534" gradientUnits="userSpaceOnUse">
      <stop offset="0" stop-color="#ffffff"/>
      <stop offset="0.55" stop-color="#f7f7f7"/>
      <stop offset="1" stop-color="#e8e8e8"/>
    </linearGradient>
    <linearGradient id="slashFill" x1="228" y1="576" x2="401" y2="715" gradientUnits="userSpaceOnUse">
      <stop offset="0" stop-color="#f000ff"/>
      <stop offset="0.55" stop-color="#8a28ff"/>
      <stop offset="1" stop-color="#2735ff"/>
    </linearGradient>
    <linearGradient id="magicFill" x1="456" y1="563" x2="1228" y2="776" gradientUnits="userSpaceOnUse">
      <stop offset="0" stop-color="#0b6cff"/>
      <stop offset="0.58" stop-color="#075bff"/>
      <stop offset="1" stop-color="#0040e8"/>
    </linearGradient>
    <mask id="methodNotches" maskUnits="userSpaceOnUse" x="0" y="0" width="1448" height="1086">
      <rect width="1448" height="1086" fill="#fff"/>
      <rect x="988" y="360" width="10" height="179" fill="#000"/>
      <path d="M 1090 403 L 1163 403 L 1159 410 L 1090 410 Z" fill="#000"/>
    </mask>
    <style>
      .magic-stroke-round { fill: none; stroke: url(#magicFill); stroke-width: 23; stroke-linecap: round; stroke-linejoin: round; }
      .magic-stroke-butt { fill: none; stroke: url(#magicFill); stroke-width: 23; stroke-linecap: butt; stroke-linejoin: round; }
    </style>
  </defs>
  <g id="logo" shape-rendering="geometricPrecision">
    <path id="method" fill="url(#methodFill)" fill-rule="evenodd" mask="url(#methodNotches)" d="M 240 532 L 240 367 L 286 367 L 333.5 474 L 381 367 L 427 367 L 427 532 L 389 532 L 389 437 L 347 532 L 320 532 L 277 437 L 277 532 Z M 454 367 L 577 367 L 577 402 L 492 402 L 492 431 L 571 431 L 571 466 L 492 466 L 492 497 L 577 497 L 577 532 L 454 532 Z M 598 367 L 733 367 L 733 402 L 685 402 L 685 532 L 646 532 L 646 402 L 598 402 Z M 754 367 L 792 367 L 792 431 L 857 431 L 857 367 L 895 367 L 895 532 L 857 532 L 857 466 L 792 466 L 792 532 L 754 532 Z M 993.5 365 C 1046 365 1069 392 1069 427 L 1069 472 C 1069 507 1046 534 993.5 534 C 941 534 918 507 918 472 L 918 427 C 918 392 941 365 993.5 365 Z M 993.5 400 C 1017 400 1030 416 1030 438 L 1030 461 C 1030 483 1017 499 993.5 499 C 970 499 957 483 957 461 L 957 438 C 957 416 970 400 993.5 400 Z M 1093 367 L 1177 367 C 1214 367 1233 391 1233 449.5 C 1233 508 1214 532 1177 532 L 1093 532 Z M 1131 402 L 1174 402 C 1190 402 1195 416 1195 449.5 C 1195 483 1190 497 1174 497 L 1131 497 Z"/>
    <path id="slashes" fill="url(#slashFill)" d="M 295 577 L 327 577 L 260 715 L 228 715 Z M 369 577 L 401 577 L 335 715 L 302 715 Z"/>
    <g id="magic">
      <path id="magic-m" class="magic-stroke-butt" d="M 468 715 L 468 630 C 468 604 486 590 512 590 C 538 590 555 606 555 633 L 555 715 M 555 633 C 555 606 574 590 601 590 C 628 590 644 607 644 633 L 644 715"/>
      <path id="magic-a-ring" class="magic-stroke-round" d="M 817 648 C 817 680 792 706 759 706 C 726 706 701 680 701 648 C 701 616 726 590 759 590 C 792 590 817 616 817 648 Z"/>
      <path id="magic-a-stem" class="magic-stroke-butt" d="M 817 648 L 817 715"/>
      <path id="magic-g" class="magic-stroke-round" d="M 991 648 C 991 680 966 706 933 706 C 900 706 875 680 875 648 C 875 616 900 590 933 590 C 966 590 991 616 991 648 Z M 991 648 L 991 713 C 991 744 968 765 933 765 C 911 765 892 757 879 742"/>
      <path id="magic-i-stem" class="magic-stroke-butt" d="M 1053 607 L 1053 715"/>
      <path id="magic-c" class="magic-stroke-round" d="M 1218 609 C 1206 597 1191 590 1173 590 C 1139 590 1115 615 1115 648 C 1115 681 1139 706 1173 706 C 1192 706 1208 699 1219 686"/>
      <circle id="magic-i-dot" cx="1053" cy="577" r="14" fill="url(#magicFill)"/>
    </g>
  </g>
</svg>
