<svg xmlns="http://www.w3.org/2000/svg" width="1028" height="435" viewBox="214 353 1028 435" role="img" aria-label="METHOD//MAGIC">
  <defs>
    <linearGradient id="methodFill" x1="0" y1="365" x2="0" y2="534" gradientUnits="userSpaceOnUse">
      <stop offset="0" stop-color="#ffffff"/>
      <stop offset="0.55" stop-color="#f7f7f7"/>
      <stop offset="1" stop-color="#e8e8e8"/>
    </linearGradient>
    <linearGradient id="slashFill" x1="228" y1="576" x2="401" y2="715" gradientUnits="userSpaceOnUse">
      <stop offset="0" stop-color="#f000ff"/>
      <stop offset="0.55" stop-color="#8a28ff"/>
      <stop offset="1" stop-color="#2735ff"/>
    </linearGradient>
    <linearGradient id="magicFill" x1="456" y1="563" x2="1228" y2="776" gradientUnits="userSpaceOnUse">
      <stop offset="0" stop-color="#0768ff"/>
      <stop offset="0.6" stop-color="#0457ff"/>
      <stop offset="1" stop-color="#003ee8"/>
    </linearGradient>
  </defs>
  <g shape-rendering="geometricPrecision" fill-rule="evenodd">
    <path id="method" fill="url(#methodFill)" d="M 454 531 L 454 517 L 453 517 L 453 498 L 454 498 L 454 497 L 453 497 L 453 446 L 454 446 L 454 445 L 453 445 L 453 441 L 454 441 L 454 440 L 453 440 L 453 439 L 454 439 L 454 423 L 453 423 L 453 413 L 454 413 L 454 404 L 453 404 L 453 401 L 454 401 L 454 395 L 453 395 L 453 385 L 454 385 L 454 375 L 453 375 L 453 368 L 454 368 L 454 367 L 577 367 L 577 402 L 492 402 L 492 431 L 570 431 L 570 432 L 571 432 L 571 465 L 570 465 L 570 466 L 492 466 L 492 496 L 576 496 L 576 497 L 577 497 L 577 531 Z M 857 367 L 895 367 L 895 531 L 857 531 L 857 466 L 792 466 L 792 531 L 754 531 L 754 367 L 792 367 L 792 431 L 857 431 Z M 598 367 L 733 367 L 733 402 L 685 402 L 685 531 L 646 531 L 646 402 L 598 402 Z M 427 531 L 389 531 L 389 437 L 388 437 L 388 439 L 387 439 L 387 441 L 386 441 L 386 444 L 385 444 L 385 446 L 384 446 L 384 448 L 383 448 L 383 450 L 382 450 L 382 452 L 381 452 L 381 455 L 380 455 L 380 457 L 379 457 L 379 459 L 378 459 L 378 461 L 377 461 L 377 463 L 376 463 L 376 466 L 375 466 L 375 468 L 374 468 L 374 470 L 373 470 L 373 472 L 372 472 L 372 475 L 371 475 L 371 477 L 370 477 L 370 479 L 369 479 L 369 482 L 368 482 L 368 484 L 367 484 L 367 486 L 366 486 L 366 488 L 365 488 L 365 490 L 364 490 L 364 493 L 363 493 L 363 495 L 362 495 L 362 497 L 361 497 L 361 500 L 360 500 L 360 502 L 359 502 L 359 504 L 358 504 L 358 506 L 357 506 L 357 508 L 356 508 L 356 511 L 355 511 L 355 513 L 354 513 L 354 515 L 353 515 L 353 517 L 352 517 L 352 519 L 351 519 L 351 521 L 350 521 L 350 524 L 349 524 L 349 526 L 348 526 L 348 528 L 347 528 L 347 530 L 346 530 L 346 531 L 320 531 L 320 530 L 319 530 L 319 528 L 318 528 L 318 526 L 317 526 L 317 523 L 316 523 L 316 521 L 315 521 L 315 519 L 314 519 L 314 517 L 313 517 L 313 514 L 312 514 L 312 512 L 311 512 L 311 510 L 310 510 L 310 508 L 309 508 L 309 506 L 308 506 L 308 503 L 307 503 L 307 501 L 306 501 L 306 499 L 305 499 L 305 497 L 304 497 L 304 494 L 303 494 L 303 492 L 302 492 L 302 490 L 301 490 L 301 487 L 300 487 L 300 485 L 299 485 L 299 483 L 298 483 L 298 481 L 297 481 L 297 479 L 296 479 L 296 476 L 295 476 L 295 474 L 294 474 L 294 472 L 293 472 L 293 470 L 292 470 L 292 467 L 291 467 L 291 465 L 290 465 L 290 463 L 289 463 L 289 461 L 288 461 L 288 458 L 287 458 L 287 456 L 286 456 L 286 454 L 285 454 L 285 452 L 284 452 L 284 450 L 283 450 L 283 447 L 282 447 L 282 445 L 281 445 L 281 443 L 280 443 L 280 440 L 279 440 L 279 438 L 278 438 L 278 437 L 277 437 L 277 531 L 240 531 L 240 367 L 286 367 L 286 369 L 287 369 L 287 371 L 288 371 L 288 373 L 289 373 L 289 376 L 290 376 L 290 378 L 291 378 L 291 380 L 292 380 L 292 382 L 293 382 L 293 385 L 294 385 L 294 387 L 295 387 L 295 389 L 296 389 L 296 391 L 297 391 L 297 393 L 298 393 L 298 396 L 299 396 L 299 398 L 300 398 L 300 400 L 301 400 L 301 402 L 302 402 L 302 405 L 303 405 L 303 407 L 304 407 L 304 409 L 305 409 L 305 411 L 306 411 L 306 414 L 307 414 L 307 416 L 308 416 L 308 418 L 309 418 L 309 420 L 310 420 L 310 423 L 311 423 L 311 425 L 312 425 L 312 427 L 313 427 L 313 429 L 314 429 L 314 432 L 315 432 L 315 434 L 316 434 L 316 436 L 317 436 L 317 438 L 318 438 L 318 441 L 319 441 L 319 443 L 320 443 L 320 445 L 321 445 L 321 448 L 322 448 L 322 450 L 323 450 L 323 452 L 324 452 L 324 454 L 325 454 L 325 456 L 326 456 L 326 459 L 327 459 L 327 461 L 328 461 L 328 463 L 329 463 L 329 466 L 330 466 L 330 468 L 331 468 L 331 470 L 332 470 L 332 472 L 333 472 L 333 474 L 334 474 L 334 472 L 335 472 L 335 470 L 336 470 L 336 467 L 337 467 L 337 465 L 338 465 L 338 463 L 339 463 L 339 461 L 340 461 L 340 458 L 341 458 L 341 456 L 342 456 L 342 454 L 343 454 L 343 452 L 344 452 L 344 450 L 345 450 L 345 447 L 346 447 L 346 445 L 347 445 L 347 443 L 348 443 L 348 441 L 349 441 L 349 439 L 350 439 L 350 436 L 351 436 L 351 434 L 352 434 L 352 432 L 353 432 L 353 430 L 354 430 L 354 427 L 355 427 L 355 425 L 356 425 L 356 423 L 357 423 L 357 421 L 358 421 L 358 419 L 359 419 L 359 416 L 360 416 L 360 414 L 361 414 L 361 412 L 362 412 L 362 410 L 363 410 L 363 407 L 364 407 L 364 405 L 365 405 L 365 403 L 366 403 L 366 401 L 367 401 L 367 398 L 368 398 L 368 396 L 369 396 L 369 394 L 370 394 L 370 392 L 371 392 L 371 389 L 372 389 L 372 387 L 373 387 L 373 385 L 374 385 L 374 383 L 375 383 L 375 381 L 376 381 L 376 378 L 377 378 L 377 376 L 378 376 L 378 374 L 379 374 L 379 371 L 380 371 L 380 369 L 381 369 L 381 367 L 427 367 Z M 964 490 L 964 491 L 965 491 L 965 492 L 966 492 L 966 493 L 968 493 L 968 494 L 969 494 L 969 495 L 972 495 L 972 496 L 975 496 L 975 497 L 980 497 L 980 498 L 989 498 L 989 534 L 982 534 L 982 533 L 971 533 L 971 532 L 965 532 L 965 531 L 961 531 L 961 530 L 957 530 L 957 529 L 954 529 L 954 528 L 951 528 L 951 527 L 949 527 L 949 526 L 947 526 L 947 525 L 945 525 L 945 524 L 944 524 L 944 523 L 942 523 L 942 522 L 941 522 L 941 521 L 939 521 L 939 520 L 938 520 L 938 519 L 937 519 L 937 518 L 936 518 L 936 517 L 935 517 L 935 516 L 934 516 L 934 515 L 933 515 L 933 514 L 932 514 L 932 513 L 931 513 L 931 511 L 930 511 L 930 510 L 929 510 L 929 508 L 928 508 L 928 507 L 927 507 L 927 505 L 926 505 L 926 502 L 925 502 L 925 500 L 924 500 L 924 497 L 923 497 L 923 494 L 922 494 L 922 490 L 921 490 L 921 485 L 920 485 L 920 478 L 919 478 L 919 421 L 920 421 L 920 414 L 921 414 L 921 409 L 922 409 L 922 405 L 923 405 L 923 402 L 924 402 L 924 399 L 925 399 L 925 397 L 926 397 L 926 395 L 927 395 L 927 393 L 928 393 L 928 391 L 929 391 L 929 389 L 930 389 L 930 388 L 931 388 L 931 386 L 932 386 L 932 385 L 933 385 L 933 384 L 934 384 L 934 383 L 935 383 L 935 382 L 936 382 L 936 381 L 937 381 L 937 380 L 938 380 L 938 379 L 939 379 L 939 378 L 941 378 L 941 377 L 942 377 L 942 376 L 943 376 L 943 375 L 945 375 L 945 374 L 947 374 L 947 373 L 949 373 L 949 372 L 951 372 L 951 371 L 953 371 L 953 370 L 956 370 L 956 369 L 959 369 L 959 368 L 963 368 L 963 367 L 967 367 L 967 366 L 974 366 L 974 365 L 989 365 L 989 399 L 987 399 L 987 400 L 980 400 L 980 401 L 975 401 L 975 402 L 972 402 L 972 403 L 970 403 L 970 404 L 968 404 L 968 405 L 967 405 L 967 406 L 966 406 L 966 407 L 965 407 L 965 408 L 964 408 L 964 409 L 963 409 L 963 410 L 962 410 L 962 412 L 961 412 L 961 414 L 960 414 L 960 417 L 959 417 L 959 421 L 958 421 L 958 427 L 957 427 L 957 472 L 958 472 L 958 478 L 959 478 L 959 482 L 960 482 L 960 484 L 961 484 L 961 487 L 962 487 L 962 488 L 963 488 L 963 490 Z M 1131 402 L 1131 403 L 1093 403 L 1093 367 L 1181 367 L 1181 368 L 1188 368 L 1188 369 L 1193 369 L 1193 370 L 1196 370 L 1196 371 L 1199 371 L 1199 372 L 1202 372 L 1202 373 L 1204 373 L 1204 374 L 1206 374 L 1206 375 L 1208 375 L 1208 376 L 1209 376 L 1209 377 L 1211 377 L 1211 378 L 1212 378 L 1212 379 L 1213 379 L 1213 380 L 1215 380 L 1215 381 L 1216 381 L 1216 382 L 1217 382 L 1217 383 L 1218 383 L 1218 384 L 1219 384 L 1219 385 L 1220 385 L 1220 387 L 1221 387 L 1221 388 L 1222 388 L 1222 390 L 1223 390 L 1223 391 L 1224 391 L 1224 393 L 1225 393 L 1225 395 L 1226 395 L 1226 397 L 1227 397 L 1227 399 L 1228 399 L 1228 402 L 1229 402 L 1229 405 L 1230 405 L 1230 409 L 1231 409 L 1231 415 L 1232 415 L 1232 423 L 1233 423 L 1233 475 L 1232 475 L 1232 483 L 1231 483 L 1231 488 L 1230 488 L 1230 492 L 1229 492 L 1229 496 L 1228 496 L 1228 499 L 1227 499 L 1227 501 L 1226 501 L 1226 503 L 1225 503 L 1225 505 L 1224 505 L 1224 507 L 1223 507 L 1223 509 L 1222 509 L 1222 510 L 1221 510 L 1221 511 L 1220 511 L 1220 513 L 1219 513 L 1219 514 L 1218 514 L 1218 515 L 1217 515 L 1217 516 L 1216 516 L 1216 517 L 1215 517 L 1215 518 L 1214 518 L 1214 519 L 1213 519 L 1213 520 L 1211 520 L 1211 521 L 1210 521 L 1210 522 L 1208 522 L 1208 523 L 1206 523 L 1206 524 L 1204 524 L 1204 525 L 1202 525 L 1202 526 L 1200 526 L 1200 527 L 1197 527 L 1197 528 L 1194 528 L 1194 529 L 1189 529 L 1189 530 L 1183 530 L 1183 531 L 1093 531 L 1093 411 L 1131 411 L 1131 496 L 1175 496 L 1175 495 L 1179 495 L 1179 494 L 1183 494 L 1183 493 L 1185 493 L 1185 492 L 1186 492 L 1186 491 L 1187 491 L 1187 490 L 1188 490 L 1188 489 L 1189 489 L 1189 488 L 1190 488 L 1190 486 L 1191 486 L 1191 484 L 1192 484 L 1192 481 L 1193 481 L 1193 476 L 1194 476 L 1194 468 L 1195 468 L 1195 429 L 1194 429 L 1194 422 L 1193 422 L 1193 417 L 1192 417 L 1192 414 L 1191 414 L 1191 412 L 1190 412 L 1190 410 L 1189 410 L 1189 409 L 1188 409 L 1188 408 L 1187 408 L 1187 407 L 1186 407 L 1186 406 L 1184 406 L 1184 405 L 1182 405 L 1182 404 L 1179 404 L 1179 403 L 1175 403 L 1175 402 Z M 1022 531 L 1022 532 L 1017 532 L 1017 533 L 1005 533 L 1005 534 L 1000 534 L 1000 498 L 1008 498 L 1008 497 L 1013 497 L 1013 496 L 1016 496 L 1016 495 L 1018 495 L 1018 494 L 1020 494 L 1020 493 L 1022 493 L 1022 492 L 1023 492 L 1023 491 L 1024 491 L 1024 490 L 1025 490 L 1025 488 L 1026 488 L 1026 486 L 1027 486 L 1027 484 L 1028 484 L 1028 481 L 1029 481 L 1029 477 L 1030 477 L 1030 467 L 1031 467 L 1031 433 L 1030 433 L 1030 422 L 1029 422 L 1029 418 L 1028 418 L 1028 414 L 1027 414 L 1027 412 L 1026 412 L 1026 410 L 1025 410 L 1025 409 L 1024 409 L 1024 407 L 1023 407 L 1023 406 L 1021 406 L 1021 405 L 1020 405 L 1020 404 L 1018 404 L 1018 403 L 1015 403 L 1015 402 L 1013 402 L 1013 401 L 1009 401 L 1009 400 L 1000 400 L 1000 365 L 1014 365 L 1014 366 L 1021 366 L 1021 367 L 1026 367 L 1026 368 L 1029 368 L 1029 369 L 1033 369 L 1033 370 L 1035 370 L 1035 371 L 1037 371 L 1037 372 L 1040 372 L 1040 373 L 1042 373 L 1042 374 L 1043 374 L 1043 375 L 1045 375 L 1045 376 L 1046 376 L 1046 377 L 1047 377 L 1047 378 L 1049 378 L 1049 379 L 1050 379 L 1050 380 L 1051 380 L 1051 381 L 1052 381 L 1052 382 L 1053 382 L 1053 383 L 1054 383 L 1054 384 L 1055 384 L 1055 385 L 1056 385 L 1056 386 L 1057 386 L 1057 388 L 1058 388 L 1058 389 L 1059 389 L 1059 391 L 1060 391 L 1060 393 L 1061 393 L 1061 395 L 1062 395 L 1062 397 L 1063 397 L 1063 399 L 1064 399 L 1064 402 L 1065 402 L 1065 405 L 1066 405 L 1066 409 L 1067 409 L 1067 414 L 1068 414 L 1068 422 L 1069 422 L 1069 476 L 1068 476 L 1068 483 L 1067 483 L 1067 489 L 1066 489 L 1066 493 L 1065 493 L 1065 496 L 1064 496 L 1064 499 L 1063 499 L 1063 502 L 1062 502 L 1062 504 L 1061 504 L 1061 506 L 1060 506 L 1060 507 L 1059 507 L 1059 509 L 1058 509 L 1058 511 L 1057 511 L 1057 512 L 1056 512 L 1056 513 L 1055 513 L 1055 515 L 1054 515 L 1054 516 L 1053 516 L 1053 517 L 1052 517 L 1052 518 L 1051 518 L 1051 519 L 1049 519 L 1049 520 L 1048 520 L 1048 521 L 1047 521 L 1047 522 L 1045 522 L 1045 523 L 1044 523 L 1044 524 L 1042 524 L 1042 525 L 1040 525 L 1040 526 L 1038 526 L 1038 527 L 1036 527 L 1036 528 L 1033 528 L 1033 529 L 1030 529 L 1030 530 L 1027 530 L 1027 531 Z"/>
    <path id="slashes" fill="url(#slashFill)" d="M 390 600 L 390 602 L 389 602 L 389 604 L 388 604 L 388 606 L 387 606 L 387 608 L 386 608 L 386 610 L 385 610 L 385 613 L 384 613 L 384 615 L 383 615 L 383 617 L 382 617 L 382 619 L 381 619 L 381 621 L 380 621 L 380 623 L 379 623 L 379 625 L 378 625 L 378 627 L 377 627 L 377 629 L 376 629 L 376 631 L 375 631 L 375 633 L 374 633 L 374 635 L 373 635 L 373 637 L 372 637 L 372 639 L 371 639 L 371 641 L 370 641 L 370 643 L 369 643 L 369 645 L 368 645 L 368 648 L 367 648 L 367 650 L 366 650 L 366 652 L 365 652 L 365 654 L 364 654 L 364 656 L 363 656 L 363 658 L 362 658 L 362 660 L 361 660 L 361 662 L 360 662 L 360 664 L 359 664 L 359 666 L 358 666 L 358 668 L 357 668 L 357 670 L 356 670 L 356 672 L 355 672 L 355 674 L 354 674 L 354 676 L 353 676 L 353 678 L 352 678 L 352 680 L 351 680 L 351 682 L 350 682 L 350 684 L 349 684 L 349 686 L 348 686 L 348 688 L 347 688 L 347 690 L 346 690 L 346 692 L 345 692 L 345 694 L 344 694 L 344 696 L 343 696 L 343 698 L 342 698 L 342 700 L 341 700 L 341 702 L 340 702 L 340 704 L 339 704 L 339 706 L 338 706 L 338 708 L 337 708 L 337 711 L 336 711 L 336 713 L 335 713 L 335 715 L 302 715 L 302 714 L 303 714 L 303 712 L 304 712 L 304 709 L 305 709 L 305 707 L 306 707 L 306 705 L 307 705 L 307 703 L 308 703 L 308 701 L 309 701 L 309 699 L 310 699 L 310 697 L 311 697 L 311 695 L 312 695 L 312 693 L 313 693 L 313 691 L 314 691 L 314 689 L 315 689 L 315 687 L 316 687 L 316 685 L 317 685 L 317 683 L 318 683 L 318 681 L 319 681 L 319 679 L 320 679 L 320 677 L 321 677 L 321 675 L 322 675 L 322 673 L 323 673 L 323 671 L 324 671 L 324 669 L 325 669 L 325 667 L 326 667 L 326 665 L 327 665 L 327 662 L 328 662 L 328 661 L 329 661 L 329 659 L 330 659 L 330 657 L 331 657 L 331 655 L 332 655 L 332 652 L 333 652 L 333 651 L 334 651 L 334 649 L 335 649 L 335 646 L 336 646 L 336 644 L 337 644 L 337 642 L 338 642 L 338 640 L 339 640 L 339 638 L 340 638 L 340 636 L 341 636 L 341 634 L 342 634 L 342 632 L 343 632 L 343 630 L 344 630 L 344 628 L 345 628 L 345 626 L 346 626 L 346 623 L 347 623 L 347 622 L 348 622 L 348 619 L 349 619 L 349 617 L 350 617 L 350 615 L 351 615 L 351 613 L 352 613 L 352 611 L 353 611 L 353 609 L 354 609 L 354 607 L 355 607 L 355 605 L 356 605 L 356 603 L 357 603 L 357 601 L 358 601 L 358 599 L 359 599 L 359 597 L 360 597 L 360 595 L 361 595 L 361 593 L 362 593 L 362 590 L 363 590 L 363 588 L 364 588 L 364 586 L 365 586 L 365 584 L 366 584 L 366 582 L 367 582 L 367 580 L 368 580 L 368 578 L 369 578 L 369 577 L 401 577 L 401 579 L 400 579 L 400 582 L 399 582 L 399 583 L 398 583 L 398 585 L 397 585 L 397 588 L 396 588 L 396 590 L 395 590 L 395 592 L 394 592 L 394 594 L 393 594 L 393 596 L 392 596 L 392 598 L 391 598 L 391 600 Z M 261 712 L 261 714 L 260 714 L 260 715 L 228 715 L 228 713 L 229 713 L 229 711 L 230 711 L 230 709 L 231 709 L 231 707 L 232 707 L 232 705 L 233 705 L 233 703 L 234 703 L 234 701 L 235 701 L 235 699 L 236 699 L 236 697 L 237 697 L 237 695 L 238 695 L 238 693 L 239 693 L 239 691 L 240 691 L 240 689 L 241 689 L 241 687 L 242 687 L 242 685 L 243 685 L 243 682 L 244 682 L 244 681 L 245 681 L 245 678 L 246 678 L 246 677 L 247 677 L 247 674 L 248 674 L 248 673 L 249 673 L 249 670 L 250 670 L 250 668 L 251 668 L 251 666 L 252 666 L 252 664 L 253 664 L 253 662 L 254 662 L 254 660 L 255 660 L 255 658 L 256 658 L 256 656 L 257 656 L 257 654 L 258 654 L 258 652 L 259 652 L 259 650 L 260 650 L 260 648 L 261 648 L 261 646 L 262 646 L 262 644 L 263 644 L 263 642 L 264 642 L 264 640 L 265 640 L 265 638 L 266 638 L 266 636 L 267 636 L 267 634 L 268 634 L 268 632 L 269 632 L 269 629 L 270 629 L 270 628 L 271 628 L 271 626 L 272 626 L 272 624 L 273 624 L 273 622 L 274 622 L 274 620 L 275 620 L 275 618 L 276 618 L 276 616 L 277 616 L 277 613 L 278 613 L 278 612 L 279 612 L 279 609 L 280 609 L 280 607 L 281 607 L 281 605 L 282 605 L 282 603 L 283 603 L 283 601 L 284 601 L 284 600 L 285 600 L 285 597 L 286 597 L 286 595 L 287 595 L 287 593 L 288 593 L 288 591 L 289 591 L 289 589 L 290 589 L 290 587 L 291 587 L 291 585 L 292 585 L 292 583 L 293 583 L 293 581 L 294 581 L 294 579 L 295 579 L 295 577 L 323 577 L 323 576 L 326 576 L 326 577 L 327 577 L 327 579 L 326 579 L 326 581 L 325 581 L 325 583 L 324 583 L 324 585 L 323 585 L 323 587 L 322 587 L 322 590 L 321 590 L 321 592 L 320 592 L 320 594 L 319 594 L 319 596 L 318 596 L 318 598 L 317 598 L 317 600 L 316 600 L 316 602 L 315 602 L 315 604 L 314 604 L 314 606 L 313 606 L 313 608 L 312 608 L 312 610 L 311 610 L 311 612 L 310 612 L 310 614 L 309 614 L 309 616 L 308 616 L 308 618 L 307 618 L 307 620 L 306 620 L 306 622 L 305 622 L 305 624 L 304 624 L 304 627 L 303 627 L 303 629 L 302 629 L 302 631 L 301 631 L 301 632 L 300 632 L 300 635 L 299 635 L 299 636 L 298 636 L 298 639 L 297 639 L 297 641 L 296 641 L 296 643 L 295 643 L 295 645 L 294 645 L 294 647 L 293 647 L 293 649 L 292 649 L 292 651 L 291 651 L 291 653 L 290 653 L 290 655 L 289 655 L 289 657 L 288 657 L 288 659 L 287 659 L 287 661 L 286 661 L 286 663 L 285 663 L 285 665 L 284 665 L 284 667 L 283 667 L 283 669 L 282 669 L 282 671 L 281 671 L 281 673 L 280 673 L 280 676 L 279 676 L 279 678 L 278 678 L 278 680 L 277 680 L 277 682 L 276 682 L 276 684 L 275 684 L 275 686 L 274 686 L 274 688 L 273 688 L 273 690 L 272 690 L 272 692 L 271 692 L 271 694 L 270 694 L 270 696 L 269 696 L 269 698 L 268 698 L 268 700 L 267 700 L 267 702 L 266 702 L 266 704 L 265 704 L 265 706 L 264 706 L 264 708 L 263 708 L 263 711 L 262 711 L 262 712 Z"/>
    <path id="magic" fill="url(#magicFill)" d="M 746 603 L 743 603 L 743 604 L 740 604 L 740 605 L 738 605 L 738 606 L 736 606 L 736 607 L 735 607 L 735 608 L 733 608 L 733 609 L 731 609 L 731 610 L 730 610 L 730 611 L 729 611 L 729 612 L 728 612 L 728 613 L 727 613 L 727 614 L 726 614 L 726 615 L 725 615 L 725 616 L 724 616 L 724 617 L 723 617 L 723 618 L 722 618 L 722 619 L 721 619 L 721 621 L 720 621 L 720 622 L 719 622 L 719 624 L 718 624 L 718 626 L 717 626 L 717 628 L 716 628 L 716 630 L 715 630 L 715 633 L 714 633 L 714 637 L 713 637 L 713 643 L 712 643 L 712 653 L 713 653 L 713 659 L 714 659 L 714 663 L 715 663 L 715 665 L 716 665 L 716 668 L 717 668 L 717 670 L 718 670 L 718 672 L 719 672 L 719 674 L 720 674 L 720 675 L 721 675 L 721 676 L 722 676 L 722 678 L 723 678 L 723 679 L 724 679 L 724 680 L 725 680 L 725 681 L 726 681 L 726 682 L 727 682 L 727 683 L 728 683 L 728 684 L 729 684 L 729 685 L 730 685 L 730 686 L 732 686 L 732 687 L 733 687 L 733 688 L 735 688 L 735 689 L 736 689 L 736 690 L 739 690 L 739 691 L 741 691 L 741 692 L 743 692 L 743 693 L 746 693 L 746 694 L 750 694 L 750 695 L 758 695 L 758 696 L 760 696 L 760 695 L 769 695 L 769 694 L 773 694 L 773 693 L 776 693 L 776 692 L 779 692 L 779 691 L 781 691 L 781 690 L 782 690 L 782 689 L 784 689 L 784 688 L 786 688 L 786 687 L 787 687 L 787 686 L 788 686 L 788 685 L 790 685 L 790 684 L 791 684 L 791 683 L 792 683 L 792 682 L 793 682 L 793 681 L 794 681 L 794 680 L 795 680 L 795 679 L 796 679 L 796 677 L 797 677 L 797 676 L 798 676 L 798 675 L 799 675 L 799 673 L 800 673 L 800 671 L 801 671 L 801 669 L 802 669 L 802 667 L 803 667 L 803 664 L 804 664 L 804 661 L 805 661 L 805 656 L 806 656 L 806 640 L 805 640 L 805 635 L 804 635 L 804 632 L 803 632 L 803 629 L 802 629 L 802 627 L 801 627 L 801 625 L 800 625 L 800 623 L 799 623 L 799 621 L 798 621 L 798 620 L 797 620 L 797 619 L 796 619 L 796 617 L 795 617 L 795 616 L 794 616 L 794 615 L 793 615 L 793 614 L 792 614 L 792 613 L 790 613 L 790 612 L 789 612 L 789 611 L 788 611 L 788 610 L 787 610 L 787 609 L 786 609 L 786 608 L 784 608 L 784 607 L 782 607 L 782 606 L 780 606 L 780 605 L 778 605 L 778 604 L 776 604 L 776 603 L 772 603 L 772 602 L 768 602 L 768 601 L 750 601 L 750 602 L 746 602 Z M 1195 582 L 1195 583 L 1198 583 L 1198 584 L 1201 584 L 1201 585 L 1203 585 L 1203 586 L 1205 586 L 1205 587 L 1207 587 L 1207 588 L 1208 588 L 1208 589 L 1210 589 L 1210 590 L 1211 590 L 1211 591 L 1212 591 L 1212 592 L 1214 592 L 1214 593 L 1215 593 L 1215 594 L 1216 594 L 1216 595 L 1217 595 L 1217 596 L 1218 596 L 1218 597 L 1219 597 L 1219 598 L 1220 598 L 1220 599 L 1221 599 L 1221 600 L 1222 600 L 1222 601 L 1223 601 L 1223 602 L 1224 602 L 1224 603 L 1225 603 L 1225 604 L 1226 604 L 1226 606 L 1227 606 L 1227 607 L 1228 607 L 1228 609 L 1227 609 L 1227 610 L 1225 610 L 1225 611 L 1224 611 L 1224 612 L 1223 612 L 1223 613 L 1221 613 L 1221 614 L 1220 614 L 1220 615 L 1218 615 L 1218 616 L 1217 616 L 1217 617 L 1215 617 L 1215 618 L 1214 618 L 1214 619 L 1212 619 L 1212 620 L 1209 620 L 1209 618 L 1208 618 L 1208 617 L 1207 617 L 1207 616 L 1206 616 L 1206 615 L 1205 615 L 1205 614 L 1204 614 L 1204 613 L 1203 613 L 1203 612 L 1202 612 L 1202 611 L 1201 611 L 1201 610 L 1200 610 L 1200 609 L 1198 609 L 1198 608 L 1196 608 L 1196 607 L 1195 607 L 1195 606 L 1193 606 L 1193 605 L 1190 605 L 1190 604 L 1188 604 L 1188 603 L 1185 603 L 1185 602 L 1180 602 L 1180 601 L 1163 601 L 1163 602 L 1159 602 L 1159 603 L 1155 603 L 1155 604 L 1153 604 L 1153 605 L 1151 605 L 1151 606 L 1149 606 L 1149 607 L 1147 607 L 1147 608 L 1145 608 L 1145 609 L 1144 609 L 1144 610 L 1143 610 L 1143 611 L 1142 611 L 1142 612 L 1140 612 L 1140 614 L 1138 614 L 1138 615 L 1137 615 L 1137 617 L 1136 617 L 1136 618 L 1135 618 L 1135 619 L 1134 619 L 1134 620 L 1133 620 L 1133 622 L 1132 622 L 1132 623 L 1131 623 L 1131 625 L 1130 625 L 1130 627 L 1129 627 L 1129 629 L 1128 629 L 1128 633 L 1127 633 L 1127 636 L 1126 636 L 1126 642 L 1125 642 L 1125 654 L 1126 654 L 1126 660 L 1127 660 L 1127 664 L 1128 664 L 1128 666 L 1129 666 L 1129 669 L 1130 669 L 1130 671 L 1131 671 L 1131 673 L 1132 673 L 1132 674 L 1133 674 L 1133 676 L 1134 676 L 1134 677 L 1135 677 L 1135 678 L 1136 678 L 1136 679 L 1137 679 L 1137 680 L 1138 680 L 1138 681 L 1139 681 L 1139 682 L 1140 682 L 1140 683 L 1141 683 L 1141 684 L 1142 684 L 1142 685 L 1143 685 L 1143 686 L 1144 686 L 1144 687 L 1145 687 L 1145 688 L 1147 688 L 1147 689 L 1149 689 L 1149 690 L 1151 690 L 1151 691 L 1153 691 L 1153 692 L 1156 692 L 1156 693 L 1159 693 L 1159 694 L 1162 694 L 1162 695 L 1181 695 L 1181 694 L 1185 694 L 1185 693 L 1188 693 L 1188 692 L 1191 692 L 1191 691 L 1193 691 L 1193 690 L 1195 690 L 1195 689 L 1196 689 L 1196 688 L 1198 688 L 1198 687 L 1199 687 L 1199 686 L 1201 686 L 1201 685 L 1202 685 L 1202 684 L 1203 684 L 1203 683 L 1204 683 L 1204 682 L 1205 682 L 1205 681 L 1206 681 L 1206 679 L 1207 679 L 1207 678 L 1208 678 L 1208 677 L 1209 677 L 1209 676 L 1210 676 L 1210 675 L 1212 675 L 1212 676 L 1213 676 L 1213 677 L 1215 677 L 1215 678 L 1216 678 L 1216 679 L 1218 679 L 1218 680 L 1219 680 L 1219 681 L 1221 681 L 1221 682 L 1222 682 L 1222 683 L 1224 683 L 1224 684 L 1225 684 L 1225 685 L 1227 685 L 1227 686 L 1228 686 L 1228 688 L 1227 688 L 1227 690 L 1226 690 L 1226 692 L 1225 692 L 1225 693 L 1224 693 L 1224 694 L 1223 694 L 1223 695 L 1222 695 L 1222 696 L 1221 696 L 1221 697 L 1220 697 L 1220 698 L 1219 698 L 1219 699 L 1218 699 L 1218 700 L 1217 700 L 1217 701 L 1216 701 L 1216 702 L 1215 702 L 1215 703 L 1214 703 L 1214 704 L 1212 704 L 1212 705 L 1211 705 L 1211 706 L 1209 706 L 1209 707 L 1208 707 L 1208 708 L 1206 708 L 1206 709 L 1204 709 L 1204 710 L 1203 710 L 1203 711 L 1201 711 L 1201 712 L 1198 712 L 1198 713 L 1195 713 L 1195 714 L 1192 714 L 1192 715 L 1188 715 L 1188 716 L 1182 716 L 1182 717 L 1162 717 L 1162 716 L 1156 716 L 1156 715 L 1152 715 L 1152 714 L 1149 714 L 1149 713 L 1146 713 L 1146 712 L 1144 712 L 1144 711 L 1142 711 L 1142 710 L 1140 710 L 1140 709 L 1138 709 L 1138 708 L 1136 708 L 1136 707 L 1134 707 L 1134 706 L 1133 706 L 1133 705 L 1131 705 L 1131 704 L 1130 704 L 1130 703 L 1129 703 L 1129 702 L 1127 702 L 1127 701 L 1126 701 L 1126 700 L 1125 700 L 1125 699 L 1124 699 L 1124 698 L 1123 698 L 1123 697 L 1122 697 L 1122 696 L 1121 696 L 1121 695 L 1120 695 L 1120 694 L 1119 694 L 1119 693 L 1118 693 L 1118 691 L 1117 691 L 1117 690 L 1116 690 L 1116 689 L 1115 689 L 1115 687 L 1114 687 L 1114 686 L 1113 686 L 1113 684 L 1112 684 L 1112 683 L 1111 683 L 1111 681 L 1110 681 L 1110 679 L 1109 679 L 1109 677 L 1108 677 L 1108 674 L 1107 674 L 1107 671 L 1106 671 L 1106 668 L 1105 668 L 1105 665 L 1104 665 L 1104 660 L 1103 660 L 1103 636 L 1104 636 L 1104 631 L 1105 631 L 1105 628 L 1106 628 L 1106 624 L 1107 624 L 1107 622 L 1108 622 L 1108 619 L 1109 619 L 1109 617 L 1110 617 L 1110 615 L 1111 615 L 1111 614 L 1112 614 L 1112 612 L 1113 612 L 1113 610 L 1114 610 L 1114 609 L 1115 609 L 1115 607 L 1116 607 L 1116 606 L 1117 606 L 1117 605 L 1118 605 L 1118 603 L 1119 603 L 1119 602 L 1120 602 L 1120 601 L 1121 601 L 1121 600 L 1122 600 L 1122 599 L 1123 599 L 1123 598 L 1124 598 L 1124 597 L 1125 597 L 1125 596 L 1126 596 L 1126 595 L 1127 595 L 1127 594 L 1129 594 L 1129 593 L 1130 593 L 1130 592 L 1131 592 L 1131 591 L 1133 591 L 1133 590 L 1134 590 L 1134 589 L 1136 589 L 1136 588 L 1137 588 L 1137 587 L 1139 587 L 1139 586 L 1141 586 L 1141 585 L 1143 585 L 1143 584 L 1146 584 L 1146 583 L 1148 583 L 1148 582 L 1151 582 L 1151 581 L 1155 581 L 1155 580 L 1160 580 L 1160 579 L 1183 579 L 1183 580 L 1188 580 L 1188 581 L 1192 581 L 1192 582 Z M 1040 572 L 1041 572 L 1041 569 L 1042 569 L 1042 568 L 1043 568 L 1043 567 L 1044 567 L 1044 566 L 1045 566 L 1045 565 L 1046 565 L 1046 564 L 1049 564 L 1049 563 L 1058 563 L 1058 564 L 1060 564 L 1060 565 L 1062 565 L 1062 566 L 1063 566 L 1063 567 L 1064 567 L 1064 568 L 1065 568 L 1065 570 L 1066 570 L 1066 572 L 1067 572 L 1067 581 L 1066 581 L 1066 583 L 1065 583 L 1065 585 L 1064 585 L 1064 586 L 1063 586 L 1063 587 L 1062 587 L 1062 588 L 1061 588 L 1061 589 L 1059 589 L 1059 590 L 1056 590 L 1056 591 L 1051 591 L 1051 590 L 1048 590 L 1048 589 L 1046 589 L 1046 588 L 1045 588 L 1045 587 L 1044 587 L 1044 586 L 1043 586 L 1043 585 L 1042 585 L 1042 584 L 1041 584 L 1041 582 L 1040 582 L 1040 580 L 1039 580 L 1039 575 L 1040 575 Z M 776 580 L 776 581 L 780 581 L 780 582 L 783 582 L 783 583 L 786 583 L 786 584 L 788 584 L 788 585 L 790 585 L 790 586 L 792 586 L 792 587 L 794 587 L 794 588 L 795 588 L 795 589 L 797 589 L 797 590 L 799 590 L 799 591 L 800 591 L 800 592 L 801 592 L 801 593 L 803 593 L 803 594 L 804 594 L 804 595 L 805 595 L 805 596 L 806 596 L 806 597 L 807 597 L 807 598 L 809 598 L 809 599 L 810 599 L 810 600 L 811 600 L 811 601 L 812 601 L 812 603 L 813 603 L 813 604 L 814 604 L 814 605 L 815 605 L 815 606 L 816 606 L 816 608 L 817 608 L 817 609 L 818 609 L 818 611 L 819 611 L 819 613 L 820 613 L 820 614 L 821 614 L 821 616 L 822 616 L 822 618 L 823 618 L 823 620 L 824 620 L 824 623 L 825 623 L 825 625 L 826 625 L 826 629 L 827 629 L 827 633 L 828 633 L 828 640 L 829 640 L 829 715 L 806 715 L 806 698 L 805 698 L 805 699 L 804 699 L 804 700 L 803 700 L 803 701 L 802 701 L 802 702 L 801 702 L 801 703 L 799 703 L 799 704 L 798 704 L 798 705 L 797 705 L 797 706 L 795 706 L 795 707 L 794 707 L 794 708 L 792 708 L 792 709 L 790 709 L 790 710 L 789 710 L 789 711 L 787 711 L 787 712 L 785 712 L 785 713 L 782 713 L 782 714 L 779 714 L 779 715 L 775 715 L 775 716 L 769 716 L 769 717 L 749 717 L 749 716 L 743 716 L 743 715 L 739 715 L 739 714 L 736 714 L 736 713 L 733 713 L 733 712 L 731 712 L 731 711 L 729 711 L 729 710 L 726 710 L 726 709 L 725 709 L 725 708 L 723 708 L 723 707 L 721 707 L 721 706 L 720 706 L 720 705 L 719 705 L 719 704 L 717 704 L 717 703 L 716 703 L 716 702 L 715 702 L 715 701 L 714 701 L 714 700 L 712 700 L 712 699 L 711 699 L 711 698 L 710 698 L 710 697 L 709 697 L 709 696 L 708 696 L 708 695 L 707 695 L 707 694 L 706 694 L 706 692 L 705 692 L 705 691 L 704 691 L 704 690 L 703 690 L 703 688 L 702 688 L 702 687 L 701 687 L 701 685 L 700 685 L 700 684 L 699 684 L 699 682 L 698 682 L 698 680 L 697 680 L 697 678 L 696 678 L 696 676 L 695 676 L 695 674 L 694 674 L 694 672 L 693 672 L 693 668 L 692 668 L 692 663 L 691 663 L 691 657 L 690 657 L 690 638 L 691 638 L 691 632 L 692 632 L 692 628 L 693 628 L 693 625 L 694 625 L 694 622 L 695 622 L 695 620 L 696 620 L 696 618 L 697 618 L 697 616 L 698 616 L 698 614 L 699 614 L 699 612 L 700 612 L 700 611 L 701 611 L 701 609 L 702 609 L 702 608 L 703 608 L 703 607 L 704 607 L 704 605 L 705 605 L 705 604 L 706 604 L 706 602 L 707 602 L 707 601 L 708 601 L 708 600 L 709 600 L 709 599 L 710 599 L 710 598 L 711 598 L 711 597 L 712 597 L 712 596 L 713 596 L 713 595 L 715 595 L 715 594 L 716 594 L 716 593 L 717 593 L 717 592 L 719 592 L 719 591 L 720 591 L 720 590 L 721 590 L 721 589 L 723 589 L 723 588 L 724 588 L 724 587 L 726 587 L 726 586 L 728 586 L 728 585 L 730 585 L 730 584 L 733 584 L 733 583 L 736 583 L 736 582 L 738 582 L 738 581 L 742 581 L 742 580 L 747 580 L 747 579 L 770 579 L 770 580 Z M 980 697 L 979 697 L 979 698 L 978 698 L 978 699 L 977 699 L 977 700 L 976 700 L 976 701 L 975 701 L 975 702 L 974 702 L 974 703 L 973 703 L 973 704 L 972 704 L 972 705 L 970 705 L 970 706 L 969 706 L 969 707 L 967 707 L 967 708 L 966 708 L 966 709 L 964 709 L 964 710 L 962 710 L 962 711 L 960 711 L 960 712 L 958 712 L 958 713 L 956 713 L 956 714 L 953 714 L 953 715 L 949 715 L 949 716 L 942 716 L 942 717 L 923 717 L 923 716 L 917 716 L 917 715 L 913 715 L 913 714 L 910 714 L 910 713 L 907 713 L 907 712 L 905 712 L 905 711 L 903 711 L 903 710 L 901 710 L 901 709 L 899 709 L 899 708 L 897 708 L 897 707 L 896 707 L 896 706 L 894 706 L 894 705 L 893 705 L 893 704 L 891 704 L 891 703 L 890 703 L 890 702 L 889 702 L 889 701 L 888 701 L 888 700 L 887 700 L 887 699 L 886 699 L 886 698 L 885 698 L 885 697 L 884 697 L 884 696 L 883 696 L 883 695 L 882 695 L 882 694 L 881 694 L 881 693 L 880 693 L 880 692 L 879 692 L 879 691 L 878 691 L 878 689 L 877 689 L 877 688 L 876 688 L 876 686 L 875 686 L 875 685 L 874 685 L 874 683 L 873 683 L 873 682 L 872 682 L 872 680 L 871 680 L 871 678 L 870 678 L 870 676 L 869 676 L 869 673 L 868 673 L 868 670 L 867 670 L 867 666 L 866 666 L 866 663 L 865 663 L 865 657 L 864 657 L 864 639 L 865 639 L 865 633 L 866 633 L 866 630 L 867 630 L 867 626 L 868 626 L 868 623 L 869 623 L 869 620 L 870 620 L 870 618 L 871 618 L 871 616 L 872 616 L 872 615 L 873 615 L 873 613 L 874 613 L 874 611 L 875 611 L 875 609 L 876 609 L 876 608 L 877 608 L 877 607 L 878 607 L 878 605 L 879 605 L 879 604 L 880 604 L 880 603 L 881 603 L 881 602 L 882 602 L 882 601 L 883 601 L 883 600 L 884 600 L 884 598 L 885 598 L 885 597 L 886 597 L 886 596 L 888 596 L 888 595 L 889 595 L 889 594 L 890 594 L 890 593 L 891 593 L 891 592 L 893 592 L 893 591 L 894 591 L 894 590 L 896 590 L 896 589 L 897 589 L 897 588 L 899 588 L 899 587 L 901 587 L 901 586 L 902 586 L 902 585 L 905 585 L 905 584 L 907 584 L 907 583 L 910 583 L 910 582 L 913 582 L 913 581 L 916 581 L 916 580 L 921 580 L 921 579 L 945 579 L 945 580 L 950 580 L 950 581 L 954 581 L 954 582 L 957 582 L 957 583 L 960 583 L 960 584 L 962 584 L 962 585 L 964 585 L 964 586 L 966 586 L 966 587 L 968 587 L 968 588 L 970 588 L 970 589 L 971 589 L 971 590 L 973 590 L 973 591 L 974 591 L 974 592 L 975 592 L 975 593 L 977 593 L 977 594 L 978 594 L 978 595 L 979 595 L 979 596 L 980 596 L 980 597 L 981 597 L 981 598 L 982 598 L 982 599 L 983 599 L 983 600 L 984 600 L 984 601 L 985 601 L 985 602 L 986 602 L 986 603 L 987 603 L 987 604 L 988 604 L 988 605 L 989 605 L 989 607 L 990 607 L 990 608 L 991 608 L 991 610 L 992 610 L 992 611 L 993 611 L 993 613 L 994 613 L 994 615 L 995 615 L 995 616 L 996 616 L 996 618 L 997 618 L 997 621 L 998 621 L 998 623 L 999 623 L 999 626 L 1000 626 L 1000 629 L 1001 629 L 1001 633 L 1002 633 L 1002 639 L 1003 639 L 1003 713 L 1002 713 L 1002 720 L 1001 720 L 1001 724 L 1000 724 L 1000 728 L 999 728 L 999 731 L 998 731 L 998 733 L 997 733 L 997 736 L 996 736 L 996 738 L 995 738 L 995 740 L 994 740 L 994 742 L 993 742 L 993 744 L 992 744 L 992 745 L 991 745 L 991 747 L 990 747 L 990 748 L 989 748 L 989 749 L 988 749 L 988 750 L 987 750 L 987 752 L 986 752 L 986 753 L 985 753 L 985 754 L 984 754 L 984 755 L 983 755 L 983 756 L 982 756 L 982 757 L 981 757 L 981 758 L 980 758 L 980 759 L 979 759 L 979 760 L 978 760 L 978 761 L 976 761 L 976 762 L 975 762 L 975 763 L 974 763 L 974 764 L 972 764 L 972 765 L 970 765 L 970 766 L 969 766 L 969 767 L 967 767 L 967 768 L 965 768 L 965 769 L 962 769 L 962 770 L 960 770 L 960 771 L 957 771 L 957 772 L 954 772 L 954 773 L 950 773 L 950 774 L 945 774 L 945 775 L 937 775 L 937 776 L 930 776 L 930 775 L 918 775 L 918 774 L 913 774 L 913 773 L 909 773 L 909 772 L 906 772 L 906 771 L 903 771 L 903 770 L 901 770 L 901 769 L 899 769 L 899 768 L 896 768 L 896 767 L 894 767 L 894 766 L 893 766 L 893 765 L 891 765 L 891 764 L 889 764 L 889 763 L 888 763 L 888 762 L 886 762 L 886 761 L 885 761 L 885 760 L 884 760 L 884 759 L 883 759 L 883 758 L 881 758 L 881 757 L 880 757 L 880 756 L 879 756 L 879 755 L 878 755 L 878 754 L 877 754 L 877 753 L 876 753 L 876 752 L 875 752 L 875 750 L 874 750 L 874 749 L 873 749 L 873 748 L 872 748 L 872 746 L 871 746 L 871 745 L 872 745 L 872 744 L 873 744 L 873 743 L 875 743 L 875 742 L 876 742 L 876 741 L 877 741 L 877 740 L 878 740 L 878 739 L 879 739 L 879 738 L 881 738 L 881 737 L 882 737 L 882 736 L 883 736 L 883 735 L 884 735 L 884 734 L 886 734 L 886 733 L 887 733 L 887 732 L 888 732 L 888 733 L 889 733 L 889 734 L 890 734 L 890 735 L 891 735 L 891 736 L 892 736 L 892 737 L 893 737 L 893 738 L 894 738 L 894 739 L 895 739 L 895 740 L 896 740 L 896 741 L 897 741 L 897 742 L 898 742 L 898 743 L 900 743 L 900 744 L 901 744 L 901 745 L 903 745 L 903 746 L 905 746 L 905 747 L 906 747 L 906 748 L 909 748 L 909 749 L 911 749 L 911 750 L 914 750 L 914 751 L 917 751 L 917 752 L 921 752 L 921 753 L 928 753 L 928 754 L 935 754 L 935 753 L 942 753 L 942 752 L 947 752 L 947 751 L 950 751 L 950 750 L 953 750 L 953 749 L 955 749 L 955 748 L 957 748 L 957 747 L 959 747 L 959 746 L 960 746 L 960 745 L 962 745 L 962 744 L 963 744 L 963 743 L 965 743 L 965 742 L 966 742 L 966 741 L 967 741 L 967 740 L 968 740 L 968 739 L 969 739 L 969 738 L 970 738 L 970 736 L 971 736 L 971 735 L 972 735 L 972 733 L 973 733 L 973 731 L 974 731 L 974 730 L 975 730 L 975 728 L 976 728 L 976 726 L 977 726 L 977 723 L 978 723 L 978 720 L 979 720 L 979 714 L 980 714 Z M 544 629 L 543 629 L 543 624 L 542 624 L 542 622 L 541 622 L 541 619 L 540 619 L 540 617 L 539 617 L 539 615 L 538 615 L 538 614 L 537 614 L 537 613 L 536 613 L 536 611 L 535 611 L 535 610 L 534 610 L 534 609 L 532 609 L 532 608 L 531 608 L 531 607 L 530 607 L 530 606 L 529 606 L 529 605 L 527 605 L 527 604 L 525 604 L 525 603 L 522 603 L 522 602 L 519 602 L 519 601 L 504 601 L 504 602 L 501 602 L 501 603 L 498 603 L 498 604 L 496 604 L 496 605 L 494 605 L 494 606 L 492 606 L 492 607 L 491 607 L 491 608 L 490 608 L 490 609 L 489 609 L 489 610 L 488 610 L 488 611 L 487 611 L 487 612 L 486 612 L 486 614 L 485 614 L 485 615 L 484 615 L 484 617 L 483 617 L 483 619 L 482 619 L 482 621 L 481 621 L 481 625 L 480 625 L 480 630 L 479 630 L 479 715 L 456 715 L 456 627 L 457 627 L 457 622 L 458 622 L 458 618 L 459 618 L 459 615 L 460 615 L 460 612 L 461 612 L 461 610 L 462 610 L 462 608 L 463 608 L 463 606 L 464 606 L 464 604 L 465 604 L 465 603 L 466 603 L 466 601 L 467 601 L 467 600 L 468 600 L 468 598 L 469 598 L 469 597 L 470 597 L 470 596 L 471 596 L 471 595 L 472 595 L 472 594 L 473 594 L 473 593 L 474 593 L 474 592 L 475 592 L 475 591 L 476 591 L 476 590 L 478 590 L 478 589 L 479 589 L 479 588 L 480 588 L 480 587 L 482 587 L 482 586 L 484 586 L 484 585 L 486 585 L 486 584 L 488 584 L 488 583 L 490 583 L 490 582 L 492 582 L 492 581 L 495 581 L 495 580 L 500 580 L 500 579 L 512 579 L 512 578 L 513 578 L 513 579 L 523 579 L 523 580 L 527 580 L 527 581 L 530 581 L 530 582 L 533 582 L 533 583 L 535 583 L 535 584 L 537 584 L 537 585 L 539 585 L 539 586 L 541 586 L 541 587 L 542 587 L 542 588 L 544 588 L 544 589 L 545 589 L 545 590 L 546 590 L 546 591 L 547 591 L 547 592 L 548 592 L 548 593 L 549 593 L 549 594 L 550 594 L 550 595 L 551 595 L 551 596 L 552 596 L 552 598 L 553 598 L 553 599 L 554 599 L 554 600 L 555 600 L 555 602 L 556 602 L 556 601 L 557 601 L 557 599 L 558 599 L 558 598 L 559 598 L 559 597 L 560 597 L 560 596 L 561 596 L 561 594 L 562 594 L 562 593 L 563 593 L 563 592 L 564 592 L 564 591 L 565 591 L 565 590 L 567 590 L 567 589 L 568 589 L 568 588 L 569 588 L 569 587 L 571 587 L 571 586 L 573 586 L 573 585 L 574 585 L 574 584 L 576 584 L 576 583 L 578 583 L 578 582 L 581 582 L 581 581 L 584 581 L 584 580 L 588 580 L 588 579 L 612 579 L 612 580 L 617 580 L 617 581 L 620 581 L 620 582 L 623 582 L 623 583 L 625 583 L 625 584 L 627 584 L 627 585 L 629 585 L 629 586 L 630 586 L 630 587 L 632 587 L 632 588 L 633 588 L 633 589 L 634 589 L 634 590 L 636 590 L 636 591 L 637 591 L 637 592 L 638 592 L 638 593 L 639 593 L 639 594 L 640 594 L 640 595 L 641 595 L 641 596 L 642 596 L 642 597 L 643 597 L 643 599 L 644 599 L 644 600 L 645 600 L 645 601 L 646 601 L 646 603 L 647 603 L 647 605 L 648 605 L 648 607 L 649 607 L 649 609 L 650 609 L 650 611 L 651 611 L 651 614 L 652 614 L 652 617 L 653 617 L 653 620 L 654 620 L 654 628 L 655 628 L 655 715 L 632 715 L 632 630 L 631 630 L 631 624 L 630 624 L 630 621 L 629 621 L 629 619 L 628 619 L 628 617 L 627 617 L 627 615 L 626 615 L 626 613 L 625 613 L 625 612 L 624 612 L 624 611 L 623 611 L 623 610 L 622 610 L 622 609 L 621 609 L 621 608 L 620 608 L 620 607 L 619 607 L 619 606 L 617 606 L 617 605 L 616 605 L 616 604 L 614 604 L 614 603 L 611 603 L 611 602 L 607 602 L 607 601 L 592 601 L 592 602 L 589 602 L 589 603 L 586 603 L 586 604 L 584 604 L 584 605 L 582 605 L 582 606 L 581 606 L 581 607 L 579 607 L 579 608 L 578 608 L 578 609 L 577 609 L 577 610 L 576 610 L 576 611 L 575 611 L 575 612 L 574 612 L 574 614 L 573 614 L 573 615 L 572 615 L 572 617 L 571 617 L 571 619 L 570 619 L 570 622 L 569 622 L 569 625 L 568 625 L 568 628 L 567 628 L 567 714 L 566 714 L 566 715 L 544 715 Z M 924 601 L 924 602 L 920 602 L 920 603 L 917 603 L 917 604 L 915 604 L 915 605 L 912 605 L 912 606 L 910 606 L 910 607 L 909 607 L 909 608 L 907 608 L 907 609 L 906 609 L 906 610 L 904 610 L 904 611 L 903 611 L 903 612 L 902 612 L 902 613 L 901 613 L 901 614 L 900 614 L 900 615 L 899 615 L 899 616 L 898 616 L 898 617 L 897 617 L 897 618 L 896 618 L 896 620 L 895 620 L 895 621 L 894 621 L 894 623 L 893 623 L 893 624 L 892 624 L 892 626 L 891 626 L 891 629 L 890 629 L 890 631 L 889 631 L 889 634 L 888 634 L 888 638 L 887 638 L 887 645 L 886 645 L 886 650 L 887 650 L 887 659 L 888 659 L 888 662 L 889 662 L 889 665 L 890 665 L 890 667 L 891 667 L 891 670 L 892 670 L 892 672 L 893 672 L 893 673 L 894 673 L 894 675 L 895 675 L 895 676 L 896 676 L 896 678 L 897 678 L 897 679 L 898 679 L 898 680 L 899 680 L 899 681 L 900 681 L 900 682 L 901 682 L 901 683 L 902 683 L 902 684 L 903 684 L 903 685 L 904 685 L 904 686 L 906 686 L 906 687 L 907 687 L 907 688 L 909 688 L 909 689 L 910 689 L 910 690 L 912 690 L 912 691 L 915 691 L 915 692 L 917 692 L 917 693 L 920 693 L 920 694 L 924 694 L 924 695 L 933 695 L 933 696 L 934 696 L 934 695 L 943 695 L 943 694 L 947 694 L 947 693 L 950 693 L 950 692 L 953 692 L 953 691 L 955 691 L 955 690 L 957 690 L 957 689 L 958 689 L 958 688 L 960 688 L 960 687 L 961 687 L 961 686 L 963 686 L 963 685 L 964 685 L 964 684 L 965 684 L 965 683 L 966 683 L 966 682 L 967 682 L 967 681 L 968 681 L 968 680 L 969 680 L 969 679 L 970 679 L 970 678 L 971 678 L 971 676 L 972 676 L 972 675 L 973 675 L 973 673 L 974 673 L 974 672 L 975 672 L 975 670 L 976 670 L 976 668 L 977 668 L 977 665 L 978 665 L 978 662 L 979 662 L 979 658 L 980 658 L 980 639 L 979 639 L 979 634 L 978 634 L 978 631 L 977 631 L 977 629 L 976 629 L 976 627 L 975 627 L 975 625 L 974 625 L 974 623 L 973 623 L 973 621 L 972 621 L 972 620 L 971 620 L 971 618 L 970 618 L 970 617 L 969 617 L 969 616 L 968 616 L 968 615 L 967 615 L 967 614 L 966 614 L 966 613 L 965 613 L 965 612 L 964 612 L 964 611 L 962 611 L 962 610 L 961 610 L 961 609 L 960 609 L 960 608 L 958 608 L 958 607 L 956 607 L 956 606 L 955 606 L 955 605 L 952 605 L 952 604 L 950 604 L 950 603 L 947 603 L 947 602 L 942 602 L 942 601 Z M 1042 715 L 1042 607 L 1064 607 L 1064 608 L 1065 608 L 1065 680 L 1064 680 L 1064 691 L 1065 691 L 1065 702 L 1064 702 L 1064 715 Z"/>
  </g>
</svg>
